#!OML:ASF E:\id_vita\Project 1\Capture day 1\Session 1\Female.ASF
:FULLY-SPECIFIED
:DEGREES
1320
root 30.6775 16.4807 -8.65492 -157.998 70.58 176.039
lowerback -13.0565 1.58994 -6.14787
upperback -5.58749 3.21805 -0.949454
thorax 1.15421 1.84367 2.90454
lowerneck 5.51888 0.837266 -5.37721
upperneck -18.2614 1.90907 5.27459
head -6.5388 1.07052 2.4289
rclavicle 4.19063e-014 -1.3418e-014
rhumerus 78.7208 3.46219 -57.3048
rradius 18.4162
rwrist 27.2739
rhand -25.6005 15.3508
rfingers 7.12502
rthumb 0.931622 -14.6269
lclavicle 4.19063e-014 -1.3418e-014
lhumerus 80.9699 0.336928 72.6424
lradius 15.0908
lwrist -61.4137
lhand -30.1173 31.9032
lfingers 7.12502
lthumb -3.43076 61.8553
rfemur -13.8726 8.76065 21.107
rtibia 9.1048
rfoot -8.28665 -24.4382
rtoes -8.73026
lfemur -50.7619 -12.0277 -8.99428
ltibia 21.5882
lfoot -12.7563 2.71162
ltoes -17.0398
1321
root 30.706 16.4764 -8.66507 -158.506 70.6373 175.757
lowerback -13.0224 1.65465 -6.25112
upperback -5.57209 3.31539 -1.02146
thorax 1.14089 1.89269 2.89806
lowerneck 5.87641 0.722549 -4.89419
upperneck -18.422 1.7252 4.8868
head -6.63709 0.972734 2.23659
rclavicle -1.26104e-014 3.39922e-014
rhumerus 78.0054 3.59108 -50.9941
rradius 20.2503
rwrist 21.1906
rhand -25.2933 13.9108
rfingers 7.12502
rthumb 1.22833 -16.0654
lclavicle -1.26104e-014 3.39922e-014
lhumerus 80.8337 0.159756 72.3757
lradius 15.1561
lwrist -61.3014
lhand -30.1045 31.7385
lfingers 7.12502
lthumb -3.41837 61.6908
rfemur -13.4305 8.93577 21.05
rtibia 9.07276
rfoot -8.44959 -24.6443
rtoes -8.72243
lfemur -50.5485 -11.7095 -9.48657
ltibia 21.9708
lfoot -12.7711 2.00016
ltoes -16.7737
1322
root 30.7395 16.4661 -8.67524 -159.313 70.8261 174.915
lowerback -13.2784 1.60865 -6.58092
upperback -5.63187 3.3249 -1.1025
thorax 1.19922 1.90563 3.00945
lowerneck 6.16099 0.713672 -4.75306
upperneck -18.4222 1.68889 4.78659
head -6.68411 0.945034 2.18302
rclavicle 7.67806e-015 9.93923e-016
rhumerus 78.0487 3.4392 -56.099
rradius 19.0042
rwrist 26.312
rhand -25.0102 14.5496
rfingers 7.12502
rthumb 1.50173 -15.4248
lclavicle 7.67806e-015 9.93923e-016
lhumerus 80.6275 0.235992 72.4385
lradius 15.1375
lwrist -61.5823
lhand -30.2128 31.1147
lfingers 7.12502
lthumb -3.52299 61.0653
rfemur -13.2346 9.1746 20.7452
rtibia 9.0102
rfoot -8.46212 -24.8352
rtoes -8.51488
lfemur -50.577 -11.2596 -10.1895
ltibia 22.4047
lfoot -12.7731 1.32366
ltoes -16.3169
1323
root 30.7715 16.4577 -8.68599 -159.725 71.001 174.471
lowerback -13.5394 1.53107 -6.7979
upperback -5.48446 3.27034 -1.10109
thorax 1.48639 1.86504 3.14298
lowerneck 5.10993 0.795168 -5.17318
upperneck -17.8296 1.85975 5.22585
head -6.32485 1.03772 2.38051
rclavicle -5.59082e-014 2.17669e-014
rhumerus 77.8554 3.59167 -51.05
rradius 20.4886
rwrist 21.713
rhand -25.2974 13.723
rfingers 7.12502
rthumb 1.22438 -16.2532
lclavicle -5.59082e-014 2.17669e-014
lhumerus 80.7966 0.61135 72.377
lradius 15.1585
lwrist -61.957
lhand -30.2243 30.6996
lfingers 7.12502
lthumb -3.53411 60.65
rfemur -13.1239 9.44789 20.56
rtibia 9.05994
rfoot -8.51639 -25.0481
rtoes -8.57836
lfemur -50.6321 -10.8512 -10.683
ltibia 22.8233
lfoot -12.767 0.716641
ltoes -15.7268
1324
root 30.7889 16.4511 -8.69988 -159.375 71.0301 175.137
lowerback -13.4151 1.68344 -6.42045
upperback -5.51226 3.41317 -1.14383
thorax 1.40316 1.9337 2.8995
lowerneck 4.98208 0.865401 -5.79421
upperneck -17.3669 2.00552 6.08838
head -6.1745 1.07975 2.74889
rclavicle 5.11374e-014 -1.68967e-014
rhumerus 77.9041 2.88425 -58.5125
rradius 18.2938
rwrist 29.1945
rhand -25.4772 16.8032
rfingers 7.12502
rthumb 1.05068 -13.1739
lclavicle 5.11374e-014 -1.68967e-014
lhumerus 80.7195 0.408142 71.6191
lradius 15.0916
lwrist -61.4594
lhand -30.5774 30.4035
lfingers 7.12502
lthumb -3.8751 60.348
rfemur -12.7373 9.68966 20.7396
rtibia 9.10249
rfoot -8.50339 -25.2504
rtoes -9.10255
lfemur -50.4506 -10.4035 -10.9246
ltibia 23.281
lfoot -12.8153 -0.0612777
ltoes -15.4419
1325
root 30.8101 16.4436 -8.71729 -159.615 71.2126 175.048
lowerback -13.4878 1.7168 -6.39771
upperback -5.43847 3.45741 -1.12748
thorax 1.51605 1.94777 2.91605
lowerneck 5.45305 0.840923 -5.10264
upperneck -17.8866 1.89268 5.13855
head -6.40412 1.04685 2.338
rclavicle -1.57413e-014 8.74653e-015
rhumerus 77.9505 2.69115 -60.7242
rradius 17.8256
rwrist 31.6205
rhand -25.5902 17.9367
rfingers 7.12502
rthumb 0.94157 -12.0409
lclavicle -1.57413e-014 8.74653e-015
lhumerus 80.6376 0.60647 70.422
lradius 15.1534
lwrist -60.3617
lhand -31.0074 30.1786
lfingers 7.12502
lthumb -4.29028 60.1151
rfemur -12.46 9.99366 20.6276
rtibia 9.08188
rfoot -8.46765 -25.3974
rtoes -9.08943
lfemur -50.3925 -9.96393 -11.3617
ltibia 23.7663
lfoot -12.7631 -0.760125
ltoes -15.1864
1326
root 30.8425 16.4398 -8.73101 -159.887 71.3426 175.016
lowerback -13.5328 1.73933 -6.50521
upperback -5.42636 3.5016 -1.06009
thorax 1.53706 1.97032 3.05488
lowerneck 5.37441 0.93271 -5.45704
upperneck -17.4836 2.00419 5.47192
head -6.27421 1.09155 2.49448
rclavicle -9.04098e-014 -4.72114e-014
rhumerus 77.5471 2.87251 -58.796
rradius 18.5097
rwrist 29.9878
rhand -25.2216 17.0615
rfingers 7.12502
rthumb 1.29751 -12.9143
lclavicle -9.04098e-014 -4.72114e-014
lhumerus 80.2386 0.647408 68.6994
lradius 15.4779
lwrist -58.7183
lhand -30.9985 30.407
lfingers 7.12502
lthumb -4.28173 60.3438
rfemur -12.0285 10.2663 20.6186
rtibia 9.08482
rfoot -8.64002 -25.5802
rtoes -8.52647
lfemur -50.1846 -9.56312 -11.7677
ltibia 24.2413
lfoot -12.693 -1.54757
ltoes -14.2329
1327
root 30.8703 16.4347 -8.74829 -160.098 71.4174 174.988
lowerback -13.5244 1.81126 -6.4495
upperback -5.50089 3.59219 -1.09123
thorax 1.45121 2.02147 3.00014
lowerneck 5.79292 0.952443 -5.21351
upperneck -17.5063 1.98058 5.20425
head -6.34993 1.07239 2.3686
rclavicle 4.71368e-014 2.41523e-014
rhumerus 76.9586 2.8583 -57.5495
rradius 19.0221
rwrist 28.9102
rhand -24.8472 16.8024
rfingers 7.12502
rthumb 1.65919 -13.1709
lclavicle 4.71368e-014 2.41523e-014
lhumerus 79.8691 0.463341 67.1651
lradius 15.759
lwrist -57.2372
lhand -30.6283 31.1086
lfingers 7.12502
lthumb -3.92421 61.0522
rfemur -11.695 10.4811 20.5897
rtibia 9.13647
rfoot -8.86357 -25.7833
rtoes -7.93334
lfemur -50.0454 -9.25746 -12.1119
ltibia 24.6461
lfoot -12.5561 -2.38533
ltoes -13.1275
1328
root 30.907 16.4241 -8.7609 -160.687 71.5927 174.522
lowerback -13.6607 1.87322 -6.62625
upperback -5.56241 3.71552 -1.17805
thorax 1.44157 2.08973 3.02935
lowerneck 5.68405 1.02928 -5.60412
upperneck -16.9741 2.09354 5.74206
head -6.17624 1.104 2.5956
rclavicle -1.24104e-013 -2.0773e-014
rhumerus 76.3066 2.85389 -56.2565
rradius 19.534
rwrist 27.693
rhand -24.9813 16.2983
rfingers 7.12502
rthumb 1.52959 -13.676
lclavicle -1.24104e-013 -2.0773e-014
lhumerus 79.5975 0.240066 66.2188
lradius 15.9089
lwrist -56.1697
lhand -30.4052 29.8
lfingers 7.12502
lthumb -3.70872 59.7475
rfemur -11.3646 10.7626 20.4709
rtibia 9.15836
rfoot -9.04063 -25.9213
rtoes -7.08181
lfemur -49.9613 -8.97422 -12.5109
ltibia 25.0607
lfoot -12.376 -3.16374
ltoes -12.1369
1329
root 30.9419 16.4133 -8.77055 -160.92 71.7438 174.388
lowerback -13.8119 1.92078 -6.72059
upperback -5.63595 3.80932 -1.22016
thorax 1.43242 2.14314 3.05601
lowerneck 5.61395 1.0662 -5.7854
upperneck -16.5238 2.13725 6.0376
head -6.02874 1.10789 2.71476
rclavicle -5.66536e-015 1.54058e-014
rhumerus 75.7469 2.5545 -56.4754
rradius 19.3881
rwrist 28.0431
rhand -25.1793 18.1143
rfingers 7.12502
rthumb 1.33838 -11.8613
lclavicle -5.66536e-015 1.54058e-014
lhumerus 79.2632 0.0657361 65.0165
lradius 16.1284
lwrist -54.9075
lhand -30.3889 29.7482
lfingers 7.12502
lthumb -3.69303 59.6959
rfemur -11.0796 11.0549 20.4409
rtibia 9.11639
rfoot -9.00149 -26.0275
rtoes -6.65529
lfemur -50.0096 -8.5834 -12.855
ltibia 25.5817
lfoot -12.1866 -4.06716
ltoes -10.7859
1330
root 30.9697 16.4055 -8.78838 -161.455 71.8751 173.987
lowerback -13.9275 1.91407 -6.79351
upperback -5.64491 3.82237 -1.24035
thorax 1.47998 2.15011 3.08351
lowerneck 6.12427 0.970879 -5.42496
upperneck -16.772 1.94834 5.56857
head -6.17842 1.01706 2.51832
rclavicle -3.80548e-014 -2.83268e-014
rhumerus 75.1382 2.8882 -52.9979
rradius 20.6978
rwrist 24.2458
rhand -24.4699 17.3109
rfingers 7.12502
rthumb 2.02352 -12.6592
lclavicle -3.80548e-014 -2.83268e-014
lhumerus 78.7733 0.0611305 63.0275
lradius 16.6223
lwrist -52.9171
lhand -30.2675 30.0819
lfingers 7.12502
lthumb -3.57575 60.0316
rfemur -10.7465 11.2854 20.2745
rtibia 9.05929
rfoot -8.86468 -26.2519
rtoes -7.15009
lfemur -49.9891 -8.21411 -13.3586
ltibia 26.1411
lfoot -12.1326 -4.97991
ltoes -9.23074
